<?xml version="1.0" encoding="utf-8"?>
<!-- Generator: Adobe Illustrator 15.1.0, SVG Export Plug-In . SVG Version: 6.00 Build 0)  -->
<!DOCTYPE svg PUBLIC "-//W3C//DTD SVG 1.1//EN" "http://www.w3.org/Graphics/SVG/1.1/DTD/svg11.dtd">
<svg version="1.1" id="Layer_1" xmlns="http://www.w3.org/2000/svg" xmlns:xlink="http://www.w3.org/1999/xlink" x="0px" y="0px"
	 width="256px" height="256px" viewBox="0 0 256 256" enable-background="new 0 0 256 256" xml:space="preserve">
<rect fill="#117AC3" width="256" height="256"/>
<g>
	<path fill="#FFFFFF" d="M200.595,143.716c6.595-20.007,16.891-63.88,20.774-79.49c3.431-13.808,5.68-18.957-0.521-18.853
		c-5.192,0.09-18.426,1.357-21.169,12.282c-4.558,18.249-15.454,60.28-19.445,73.633c-4.392,14.683-13.728,17.752-25.487,17.859
		c-10.236,0.072-15.87-0.714-15.87-8.509c-3.27-0.067-8.309-0.026-10.624-0.013c-2.31-0.014-7.349-0.055-10.618,0.013
		c0,8.201-5.632,8.509-15.876,8.509c-7.608,0-19.161-1.422-23.378-15.368c-2.95-9.726-10.317-34.891-14.089-48.185
		c-3.796-13.287-15.686-14.042-21.395-14.061c-6.271-0.026-5.773,0.987-2.149,14.061c3.61,13.081,11.546,42.251,17.095,61.797
		c5.562,19.543,24.608,25.914,36.768,25.914c10.444,0,10.818,0,20.535,0c9.33,0,12.606-3.997,13.107-5.265
		c0.5,1.268,4.104,5.265,13.426,5.265c9.737,0,9.47,0,19.907,0C178.505,173.307,194.249,163.028,200.595,143.716z"/>
	<path fill="#FFFFFF" d="M97.115,92.962c5.372,0,9.724-4.358,9.724-9.716c0-5.379-4.352-9.737-9.724-9.737
		c-5.379,0-9.724,4.358-9.724,9.737C87.392,88.604,91.735,92.962,97.115,92.962z"/>
	<path fill="#FFFFFF" d="M128.721,92.962c5.365,0,9.736-4.358,9.736-9.716c0-5.379-4.371-9.737-9.736-9.737
		s-9.724,4.358-9.724,9.737C118.997,88.604,123.355,92.962,128.721,92.962z"/>
	<path fill="#FFFFFF" d="M160.74,92.962c5.359,0,9.731-4.358,9.731-9.716c0-5.379-4.371-9.737-9.731-9.737
		c-5.372,0-9.724,4.358-9.724,9.737C151.017,88.604,155.368,92.962,160.74,92.962z"/>
	<path fill="#FFFFFF" d="M97.115,127.999c5.372,0,9.724-4.358,9.724-9.723c0-5.373-4.352-9.73-9.724-9.73
		c-5.379,0-9.724,4.358-9.724,9.73C87.392,123.641,91.735,127.999,97.115,127.999z"/>
	<path fill="#FFFFFF" d="M128.721,127.999c5.365,0,9.736-4.358,9.736-9.723c0-5.373-4.371-9.73-9.736-9.73s-9.724,4.358-9.724,9.73
		C118.997,123.641,123.355,127.999,128.721,127.999z"/>
	<path fill="#FFFFFF" d="M160.74,127.999c5.359,0,9.731-4.358,9.731-9.723c0-5.373-4.371-9.73-9.731-9.73
		c-5.372,0-9.724,4.358-9.724,9.73C151.017,123.641,155.368,127.999,160.74,127.999z"/>
	<path fill="#FFFFFF" d="M51.474,178.651c-10.751,0-19.49,8.749-19.49,19.514c0,10.758,8.739,19.48,19.49,19.48
		c10.777,0,19.5-8.723,19.5-19.48C70.974,187.402,62.252,178.651,51.474,178.651z M51.474,205.159c-3.851,0-6.987-3.13-6.987-6.994
		c0-3.863,3.137-6.994,6.987-6.994c3.864,0,6.997,3.131,6.997,6.994C58.471,202.029,55.338,205.159,51.474,205.159z"/>
	<path fill="#FFFFFF" d="M205.26,178.418c-10.764,0-19.506,8.736-19.506,19.494c0,10.753,8.742,19.514,19.506,19.514
		c10.765,0,19.494-8.761,19.494-19.514C224.753,187.154,216.025,178.418,205.26,178.418z M205.26,204.906
		c-3.856,0-6.994-3.129-6.994-6.994c0-3.864,3.138-6.994,6.994-6.994c3.857,0,6.994,3.13,6.994,6.994
		C212.254,201.777,209.117,204.906,205.26,204.906z"/>
</g>
</svg>
